<svg xmlns="http://www.w3.org/2000/svg" viewBox="0 0 512 506" width="56" height="52">
	<style>
		tspan { white-space:pre }
		.shp0 { fill: #ffffff } 
	</style>
	<path id="Shape 1" class="shp0" d="M386.96 136.12C382.56 131.33 376.31 128.59 369.81 128.59L357.86 128.59L359.28 106.8L361.05 79.75C362.41 58.86 355.28 38.95 340.96 23.68C326.64 8.41 307.23 0 286.29 0L226.71 0C205.77 0 186.36 8.41 172.04 23.68C157.72 38.95 150.59 58.86 151.95 79.75L154.6 120.32L155.14 128.59L142.16 128.59C135.66 128.59 129.41 131.33 125.02 136.12C120.62 140.9 118.42 147.36 118.97 153.83L122.86 199.1C123.66 208.45 129.79 216.01 138.13 218.99L138.13 261.16C138.13 266.79 142.7 271.36 148.34 271.36C153.97 271.36 158.54 266.79 158.54 261.16L158.54 220.37L161.28 220.37C164.97 251.01 182.99 277.83 210.27 292.83C224.75 300.78 240.62 304.76 256.5 304.76C272.38 304.76 288.26 300.78 302.73 292.83C316.59 285.21 328.05 274.53 336.47 261.86C343.49 261.14 350.01 259.2 355.98 256.01C385.47 240.25 388.99 200.72 389.13 199.05C389.13 199.05 389.13 199.04 389.13 199.04L393 153.83C393.56 147.36 391.36 140.9 386.96 136.12ZM146.05 199.97C144.55 199.97 143.32 198.85 143.19 197.35L139.31 152.09C139.22 151.05 139.67 150.33 140.06 149.91C140.44 149.49 141.13 148.98 142.17 148.98L156.47 148.98L159.8 199.97L146.05 199.97L146.05 199.97ZM172.32 78.42C171.33 63.22 176.52 48.74 186.93 37.63C197.35 26.51 211.48 20.4 226.71 20.4L286.29 20.4C287.61 20.4 288.92 20.46 290.22 20.55L274.42 62.68C271.86 66.92 248.68 101.78 174.3 108.73L172.32 78.42ZM331.86 213.74C331.22 223.56 328.71 232.95 324.61 241.51C315.86 240.55 305.87 237.31 294.71 231.83C295.08 230.1 295.28 228.32 295.28 226.49C295.28 212.43 283.83 200.99 269.77 200.99C255.7 200.99 244.26 212.43 244.26 226.49C244.26 240.54 255.7 251.98 269.77 251.98C274.43 251.98 278.79 250.72 282.56 248.53C293.03 253.92 302.89 257.73 312.12 259.93C306.65 265.85 300.2 270.94 292.89 274.96C270.11 287.48 242.9 287.48 220.11 274.96C197.4 262.48 182.83 239.59 181.15 213.74L175.62 129.08C233.1 123.81 264.44 102.81 279.89 87.74C284.02 92.47 289.92 96.83 297.54 100.77C305.78 105.02 319.49 109.49 338.36 114.08L331.86 213.74ZM274.87 226.49C274.87 229.3 272.58 231.59 269.77 231.59C266.95 231.59 264.66 229.3 264.66 226.49C264.66 223.67 266.95 221.39 269.77 221.39C272.58 221.39 274.87 223.67 274.87 226.49ZM340.68 78.42L339.71 93.41C320.8 88.66 311.48 85.01 306.91 82.65C295.78 76.9 293.27 72.15 293.2 70.69C293.21 70.67 293.22 70.65 293.22 70.63C293.23 70.62 293.23 70.6 293.24 70.59L310.05 25.8C315.98 28.67 321.4 32.64 326.07 37.63C336.49 48.74 341.68 63.22 340.68 78.42ZM348.24 236.92C349.87 231.57 351.04 226.03 351.72 220.37L362.19 220.37C359.11 226.66 354.66 232.86 348.24 236.92ZM368.79 197.35C368.66 198.85 367.43 199.97 365.93 199.97L353.21 199.97L356.53 148.98L369.81 148.98C370.86 148.98 371.54 149.49 371.92 149.91C372.31 150.33 372.76 151.05 372.67 152.09L368.79 197.35ZM512.46 493.99L502.59 439.56C497.07 409.05 482.56 381.37 460.63 359.48C438.96 337.86 411.66 323.44 381.66 317.8C372.42 316.06 362.96 315.18 353.56 315.18L323.85 315.18C321.14 315.18 318.55 316.25 316.63 318.16L256.5 378.26L196.37 318.16C194.46 316.25 191.86 315.17 189.15 315.17L159.44 315.17C150.04 315.17 140.59 316.06 131.34 317.8C131.34 317.8 131.34 317.8 131.34 317.8C101.34 323.44 74.04 337.86 52.37 359.48C30.45 381.36 15.94 409.05 10.41 439.56L0.54 493.99C0 496.96 0.81 500.02 2.75 502.34C4.69 504.66 7.56 506 10.58 506L502.42 506C505.44 506 508.31 504.66 510.25 502.34C512.19 500.02 513 496.96 512.46 493.99ZM263.72 399.89L328.07 335.57L353.56 335.57C354.88 335.57 356.21 335.59 357.53 335.63L256.5 436.59L241.75 421.85L263.72 399.89ZM159.44 335.57L184.93 335.57L242.07 392.68L227.31 407.42L155.48 335.63C156.8 335.59 158.12 335.57 159.44 335.57ZM22.8 485.61L30.49 443.19C39.79 391.89 79.41 350.61 129.92 338.93L249.29 458.23C249.53 458.48 249.79 458.71 250.06 458.93C253.8 461.98 259.2 461.98 262.94 458.93C263.21 458.71 263.47 458.48 263.72 458.23L383.09 338.93C433.59 350.61 473.21 391.89 482.51 443.19L490.2 485.61L22.8 485.61L22.8 485.61ZM148.34 281.55C142.7 281.55 138.13 286.12 138.13 291.75L138.13 295.83C138.13 301.46 142.7 306.03 148.34 306.03C153.97 306.03 158.54 301.46 158.54 295.83L158.54 291.75C158.54 286.12 153.97 281.55 148.34 281.55Z" />
</svg>