<svg xmlns="http://www.w3.org/2000/svg" viewBox="0 0 512 380" width="56" height="52">
	<style>
		tspan { white-space:pre }
		.shp0 { fill: #ffffff } 
	</style>
	<path id="Shape 1" class="shp0" d="M486.39 127.67L401.97 127.67L401.97 25.63C401.97 11.5 390.49 0 376.36 0L25.61 0C11.49 0 0 11.5 0 25.63L0 226.7C0 240.83 11.49 252.33 25.61 252.33L110.02 252.33L110.02 354.37C110.02 368.5 121.51 380 135.63 380L486.39 380C500.51 380 512 368.5 512 354.37L512 153.3C512 139.17 500.51 127.67 486.39 127.67ZM25.61 231.92C22.74 231.92 20.4 229.58 20.4 226.7L20.4 25.63C20.4 22.75 22.74 20.41 25.61 20.41L376.36 20.41C379.24 20.41 381.58 22.75 381.58 25.63L381.58 226.7C381.58 229.58 379.24 231.92 376.36 231.92L25.61 231.92L25.61 231.92ZM491.6 354.37C491.6 357.25 489.26 359.59 486.39 359.59L135.63 359.59C132.76 359.59 130.42 357.25 130.42 354.37L130.42 341.35L491.6 341.35L491.6 354.37L491.6 354.37ZM491.6 320.94L130.42 320.94L130.42 289.81L491.6 289.81L491.6 320.94L491.6 320.94ZM491.6 269.4L130.42 269.4L130.42 252.33L376.36 252.33C390.49 252.33 401.97 240.83 401.97 226.7L401.97 148.09L486.39 148.09C489.26 148.09 491.6 150.43 491.6 153.3L491.6 269.4ZM322.72 41C311.82 41 302.01 45.72 295.21 53.23C288.41 45.72 278.6 41 267.7 41C247.24 41 230.58 57.66 230.58 78.14C230.58 98.63 247.24 115.29 267.7 115.29C278.6 115.29 288.41 110.57 295.21 103.06C302.01 110.57 311.82 115.29 322.72 115.29C343.18 115.29 359.84 98.63 359.84 78.14C359.84 57.66 343.19 41 322.72 41ZM267.7 94.88C258.48 94.88 250.98 87.37 250.98 78.14C250.98 68.92 258.48 61.41 267.7 61.41C276.93 61.41 284.43 68.92 284.43 78.14C284.43 87.37 276.93 94.88 267.7 94.88ZM322.72 94.88C313.5 94.88 305.99 87.37 305.99 78.14C305.99 68.92 313.5 61.41 322.72 61.41C331.94 61.41 339.44 68.92 339.44 78.14C339.44 87.37 331.94 94.88 322.72 94.88ZM101.54 171.01L52.34 171.01C46.7 171.01 42.14 175.58 42.14 181.22C42.14 186.85 46.7 191.42 52.34 191.42L101.54 191.42C107.18 191.42 111.74 186.85 111.74 181.22C111.74 175.58 107.18 171.01 101.54 171.01ZM184.63 171.01L135.42 171.01C129.79 171.01 125.23 175.58 125.23 181.22C125.23 186.85 129.79 191.42 135.42 191.42L184.63 191.42C190.27 191.42 194.83 186.85 194.83 181.22C194.83 175.58 190.26 171.01 184.63 171.01ZM267.72 171.01L218.51 171.01C212.88 171.01 208.31 175.58 208.31 181.22C208.31 186.85 212.88 191.42 218.51 191.42L267.72 191.42C273.35 191.42 277.92 186.85 277.92 181.22C277.92 175.58 273.35 171.01 267.72 171.01ZM350.81 171.01L301.6 171.01C295.97 171.01 291.4 175.58 291.4 181.22C291.4 186.85 295.97 191.42 301.6 191.42L350.81 191.42C356.44 191.42 361.01 186.85 361.01 181.22C361.01 175.58 356.44 171.01 350.81 171.01ZM86.57 44.51L64.92 44.51C53.65 44.51 44.48 53.69 44.48 64.97L44.48 86.63C44.48 97.91 53.65 107.09 64.92 107.09L86.57 107.09C97.84 107.09 107.01 97.91 107.01 86.63L107.01 64.97C107.01 53.69 97.84 44.51 86.57 44.51ZM86.59 86.68C86.59 86.68 86.59 86.68 86.57 86.68L64.88 86.63L64.92 64.92L86.61 64.97L86.59 86.68Z" />
</svg>