<svg xmlns="http://www.w3.org/2000/svg" viewBox="0 0 800 782" width="56" height="52">
	<style>
		tspan { white-space:pre }
		.shp0 { fill: #ffffff } 
	</style>
	<path id="Shape 1" class="shp0" d="M780.28 64.12C768.88 64.12 759.55 73.45 759.55 84.85L759.55 635.28C759.55 693.52 712.23 740.7 654.2 740.7L147.8 740.7C89.6 740.7 42.45 693.34 42.45 635.28L42.45 41.48L649.19 41.48L649.19 575.48C649.19 586.89 658.51 596.22 669.91 596.22C681.31 596.22 690.64 586.89 690.64 575.48L690.64 20.74C690.64 9.33 681.31 0 669.91 0L21.73 0C10.33 0 1 9.33 1 20.74L1 635.1C1 716.16 66.8 782 147.8 782L654.02 782C735.02 782 800.83 716.16 800.83 635.1L800.83 84.85C801 73.45 791.67 64.12 780.28 64.12ZM569.74 161.07C581.14 161.07 590.46 151.73 590.46 140.33C590.46 128.92 581.14 119.59 569.74 119.59L117.93 119.59C106.53 119.59 97.2 128.92 97.2 140.33C97.2 151.73 106.53 161.07 117.93 161.07L569.74 161.07ZM569.74 542.3L117.93 542.3C106.53 542.3 97.2 551.63 97.2 563.04C97.2 574.45 106.53 583.78 117.93 583.78L569.57 583.78C580.97 583.78 590.29 574.45 590.29 563.04C590.29 551.63 581.14 542.3 569.74 542.3ZM569.74 648.58L189.6 648.58C178.2 648.58 168.88 657.92 168.88 669.32C168.88 680.73 178.2 690.06 189.6 690.06L569.74 690.06C581.14 690.06 590.46 680.73 590.46 669.32C590.46 657.92 581.14 648.58 569.74 648.58ZM90.29 233.48L90.29 457.79C90.29 469.2 99.62 478.53 111.02 478.53L336.06 478.53C347.46 478.53 356.79 469.2 356.79 457.79L356.79 233.48C356.79 222.07 347.46 212.74 336.06 212.74L111.02 212.74C99.62 212.74 90.29 222.07 90.29 233.48ZM131.74 254.21L315.33 254.21L315.33 437.06L131.74 437.06L131.74 254.21ZM580.79 233.48L431.74 233.48C420.34 233.48 411.02 242.81 411.02 254.21C411.02 265.62 420.34 274.95 431.74 274.95L580.79 274.95C592.19 274.95 601.52 265.62 601.52 254.21C601.52 242.81 592.36 233.48 580.79 233.48ZM580.79 327.14L431.74 327.14C420.34 327.14 411.02 336.48 411.02 347.88C411.02 359.29 420.34 368.62 431.74 368.62L580.79 368.62C592.19 368.62 601.52 359.29 601.52 347.88C601.52 336.48 592.36 327.14 580.79 327.14ZM601.52 447.42C601.52 436.02 592.19 426.69 580.79 426.69L431.74 426.69C420.34 426.69 411.02 436.02 411.02 447.42C411.02 458.83 420.34 468.16 431.74 468.16L580.79 468.16C592.36 468.16 601.52 458.83 601.52 447.42Z" />
</svg>