<svg xmlns="http://www.w3.org/2000/svg" viewBox="0 0 767 800" width="56" height="52">
	<style>
		tspan { white-space:pre }
		.shp0 { fill: #ffffff } 
	</style>
	<path id="Shape 1" class="shp0" d="M762.72 207.02L605.76 7.88C601.82 2.91 596 0 589.67 0L177.5 0C171.17 0 165.35 2.91 161.41 7.88L4.45 207.02C1.54 210.62 0 215.07 0 219.69L0 779.45C0 790.75 9.24 800 20.54 800L746.46 800C757.76 800 767 790.75 767 779.45L767 219.69C767 215.07 765.46 210.62 762.72 207.02ZM706.92 202.57L404.13 202.57L404.13 41.1L579.74 41.1L706.92 202.57ZM187.43 41.1L363.05 41.1L363.05 202.57L60.25 202.57L187.43 41.1ZM41.08 758.9L41.08 243.66L725.92 243.66L725.92 758.9L41.08 758.9ZM603.71 389.04L183.66 389.04C172.37 389.04 163.12 398.29 163.12 409.59C163.12 420.89 172.37 430.14 183.66 430.14L603.71 430.14C615 430.14 624.25 420.89 624.25 409.59C624.25 398.29 615 389.04 603.71 389.04ZM523.94 485.45L263.43 485.45C252.13 485.45 242.89 494.69 242.89 505.99C242.89 517.29 252.13 526.54 263.43 526.54L523.77 526.54C535.07 526.54 544.31 517.29 544.31 505.99C544.31 494.69 535.24 485.45 523.94 485.45ZM523.94 581.68L263.43 581.68C252.13 581.68 242.89 590.92 242.89 602.23C242.89 613.53 252.13 622.77 263.43 622.77L523.77 622.77C535.07 622.77 544.31 613.53 544.31 602.23C544.31 590.92 535.24 581.68 523.94 581.68Z" />
</svg>